<svg width="50" height="20" viewBox="0 0 50 20" fill="none" xmlns="http://www.w3.org/2000/svg">
<g clip-path="url(#clip0_3501_222)">
<path d="M32.6887 0.628736C32.5484 0.628809 32.4095 0.660612 32.2799 0.722329C32.1503 0.784045 32.0326 0.874464 31.9335 0.988416C31.7376 1.21322 31.62 1.53075 31.62 1.85671V16.6784C31.62 17.0043 31.7327 17.3162 31.9335 17.5467C32.0326 17.6606 32.1504 17.751 32.28 17.8126C32.4096 17.8743 32.5486 17.9061 32.6889 17.9061C32.8292 17.9061 32.9682 17.8743 33.0978 17.8126C33.2274 17.751 33.3452 17.6606 33.4444 17.5467C33.6403 17.3219 33.7578 17.0043 33.7578 16.6784V1.85615C33.7578 1.53019 33.6452 1.21827 33.4444 0.987855C33.3452 0.873835 33.2274 0.783378 33.0977 0.721659C32.9681 0.65994 32.8291 0.628173 32.6887 0.628174V0.628736ZM16.4083 5.8531C16.4083 5.17532 15.9298 4.62569 15.3406 4.62569C14.7514 4.62569 14.2729 5.17532 14.2729 5.8531V16.6772C14.2729 17.355 14.7514 17.9046 15.3406 17.9046C15.9298 17.9046 16.4083 17.355 16.4083 16.6772V5.8531Z" fill="#9E9E9E"/>
<path d="M16.7101 1.85839C16.7032 2.27017 16.5558 2.66241 16.2997 2.95092C16.0437 3.23911 15.6994 3.40055 15.3408 3.40055C14.9822 3.40055 14.6379 3.23911 14.3818 2.95092C14.1257 2.66241 13.9784 2.27017 13.9714 1.85839C13.9713 1.44112 14.1156 1.04085 14.3725 0.745631C14.4995 0.599478 14.6504 0.483518 14.8165 0.404396C14.9826 0.325274 15.1607 0.284546 15.3405 0.284546C15.5204 0.284546 15.6985 0.325274 15.8646 0.404396C16.0307 0.483518 16.1816 0.599478 16.3085 0.745631C16.5655 1.04085 16.7098 1.44112 16.7096 1.85839H16.7101Z" fill="white"/>
<path d="M29.6895 8.54279C28.663 5.87554 26.2343 3.99058 23.4633 4.31654C22.529 4.42986 21.6303 4.78996 20.8377 5.36861C20.0447 5.94764 19.3793 6.72935 18.8934 7.65258C18.4073 8.57633 18.1138 9.61649 18.0358 10.6919C17.9574 11.7676 18.0975 12.85 18.4438 13.8526C18.79 14.8555 19.3335 15.753 20.032 16.4749C20.7303 17.1962 21.5646 17.7225 22.4695 18.0125C23.3744 18.3024 24.3254 18.3477 25.2481 18.1449C26.1707 17.9421 27.0399 17.4966 27.7873 16.8435C27.913 16.7329 28.0156 16.5914 28.0875 16.4294C28.1595 16.2675 28.1992 16.0888 28.2031 15.9067C28.2111 15.5838 28.1072 15.2704 27.9141 15.0353C27.721 14.8003 27.4545 14.6627 27.1731 14.6529C26.9313 14.644 26.6942 14.7305 26.5012 14.8979C25.7615 15.5534 24.8419 15.8839 23.9084 15.8297C23.1503 15.7853 22.4193 15.4917 21.8025 14.9839C21.183 14.4768 20.7024 13.7775 20.417 12.968C20.3781 12.8589 20.3757 12.7371 20.4103 12.6261C20.4449 12.515 20.5141 12.4226 20.6046 12.3666C20.6645 12.3297 20.7315 12.3104 20.7995 12.3104H28.2168C28.5742 12.3121 28.9239 12.1918 29.2215 11.9647C29.519 11.7376 29.751 11.4141 29.8878 11.0353C29.979 10.7838 30.0261 10.5141 30.0264 10.2417C30.0115 9.65703 29.8994 9.08099 29.6963 8.54448L29.6895 8.54279ZM24.0941 6.71517C24.8882 6.71539 25.6639 6.98909 26.321 7.50084C26.9784 8.0132 27.4868 8.74009 27.7804 9.58755C27.8052 9.65984 27.8145 9.73791 27.8074 9.81516C27.8 9.89235 27.7764 9.96632 27.7385 10.0307C27.7006 10.095 27.6496 10.1478 27.5899 10.1844C27.5303 10.2211 27.4637 10.2404 27.396 10.2406H20.7916C20.7239 10.2407 20.6573 10.2214 20.5977 10.1844C20.538 10.1473 20.487 10.0945 20.4488 10.031C20.4106 9.96746 20.3871 9.89272 20.3803 9.81516C20.3732 9.73791 20.3824 9.65984 20.4072 9.58755C20.7008 8.74009 21.2092 8.0132 21.8667 7.50084C22.5248 6.99164 23.2998 6.71819 24.0936 6.71517H24.0941ZM41.4426 15.8342C40.6813 15.8344 39.936 15.5829 39.296 15.1098C38.6554 14.6348 38.1458 13.9603 37.8267 13.1653C37.5111 12.3692 37.4015 11.4858 37.5109 10.6203C37.6203 9.75473 37.9441 8.9435 38.4438 8.28315L36.8277 6.69999C36.3044 7.39734 35.9066 8.20662 35.6571 9.08119C35.4071 9.95579 35.3097 10.8784 35.3706 11.7962C35.4314 12.714 35.6498 13.6092 36.0073 14.4303C36.3698 15.251 36.87 15.9815 37.479 16.58C38.0878 17.1782 38.7935 17.6328 39.5556 17.9175C40.3175 18.2022 41.1209 18.3111 41.9196 18.2379C42.7185 18.1647 43.4969 17.9107 44.2097 17.4904C44.9229 17.0706 45.5569 16.4932 46.0752 15.7915L44.459 14.2089C44.0871 14.7181 43.6223 15.1275 43.0975 15.4082C42.573 15.689 42.0013 15.8343 41.4225 15.8336L41.4426 15.8342Z" fill="#9E9E9E"/>
<path d="M41.4426 4.27503C40.5687 4.27379 39.7049 4.48948 38.9105 4.90728C38.1155 5.32519 37.4085 5.93519 36.8379 6.69557L38.4492 8.27873C39.1355 7.37111 40.1068 6.81181 41.1511 6.72284C42.1954 6.63388 43.228 7.02247 44.0236 7.80383C44.8193 8.58653 45.3139 9.69788 45.3998 10.8965C45.4851 12.0954 45.1546 13.2844 44.48 14.205L46.0913 15.7876C46.8411 14.7689 47.3219 13.5258 47.4773 12.2043C47.6324 10.8825 47.4554 9.53733 46.967 8.32706C46.4787 7.11733 45.6993 6.09301 44.7205 5.37487C43.7407 4.65938 42.6039 4.27797 41.4426 4.27503V4.27503Z" fill="white"/>
<path d="M12.3042 14.9531C12.1201 14.7699 11.887 14.6646 11.6435 14.6544C11.4 14.6443 11.1608 14.7301 10.9657 14.8974C10.3784 15.4132 9.67699 15.7301 8.94089 15.8124C8.20479 15.8946 7.46332 15.7389 6.80033 15.3628C6.13727 14.986 5.5788 14.4047 5.18757 13.6841C4.79641 12.9627 4.58852 12.1303 4.58731 11.2807C4.5861 10.431 4.79162 9.59788 5.18072 8.87503C5.56951 8.15271 6.12638 7.56935 6.78858 7.19071C7.45045 6.81169 8.1916 6.65298 8.92805 6.73254C9.6645 6.8121 10.3668 7.12676 10.9554 7.64087C11.1483 7.81149 11.3864 7.9009 11.6299 7.89415C11.8734 7.8874 12.1074 7.78489 12.2929 7.60378C12.4129 7.48576 12.5084 7.33964 12.5721 7.17497C12.6357 7.01031 12.6681 6.83047 12.6651 6.6495C12.6622 6.46854 12.623 6.29095 12.5525 6.12965C12.482 5.96836 12.3801 5.82617 12.2562 5.71602C11.3539 4.92345 10.2762 4.43673 9.14527 4.31102C8.01388 4.18487 6.87433 4.42533 5.85606 5.0051C4.8378 5.58487 3.98162 6.48071 3.38479 7.59085C2.78706 8.70111 2.47141 9.98085 2.4734 11.2859C2.47539 12.5909 2.79494 13.8694 3.39605 14.9772C3.997 16.0839 4.85596 16.9754 5.87568 17.5508C6.8954 18.1262 8.03514 18.3625 9.16584 18.2329C10.2963 18.1028 11.3725 17.612 12.2724 16.8161C12.3947 16.706 12.4941 16.5661 12.5635 16.4065C12.6328 16.2469 12.6704 16.0716 12.6735 15.8933C12.6766 15.715 12.6451 15.5381 12.5813 15.3755C12.5175 15.2129 12.423 15.0686 12.3047 14.9531H12.3042Z" fill="#9E9E9E"/>
</g>
<defs>
<clipPath id="clip0_3501_222">
<rect width="50" height="19.1176" fill="white" transform="translate(0 0.132568)"/>
</clipPath>
</defs>
</svg>
