<svg width="55" height="17" viewBox="0 0 55 17" fill="none" xmlns="http://www.w3.org/2000/svg">
<g clip-path="url(#clip0_3502_543)">
<mask id="path-1-inside-1_3502_543" fill="white">
<path d="M0.35793 13.1097V6.98868H8.00035V6.63064H0.35793V1.04653H8.48354V0.688599H0V13.4676H8.55508V13.1097H0.358037H0.35793ZM15.4459 4.26811L12.278 8.43833L9.18156 4.26822H8.71621L12.0632 8.70689L8.39395 13.4675H8.82353L12.2778 8.97512L15.75 13.4675H16.1974L12.5105 8.70667L15.8752 4.268H15.4458L15.4459 4.26811ZM17.2714 16.6177V10.8905H17.3072C17.522 11.7257 17.9456 12.3968 18.578 12.904C19.2104 13.411 20.0157 13.6646 20.9941 13.6646C21.6265 13.6646 22.1873 13.5364 22.6765 13.2798C23.1657 13.0233 23.5744 12.6743 23.9025 12.2328C24.2306 11.7913 24.4812 11.2782 24.6543 10.6935C24.8272 10.109 24.9138 9.4944 24.9138 8.85019C24.9138 8.15807 24.8242 7.51966 24.6453 6.93507C24.4663 6.35038 24.2068 5.84324 23.8668 5.41376C23.5267 4.98418 23.115 4.65 22.6317 4.41152C22.1486 4.17283 21.6026 4.05348 20.9941 4.05348C20.5288 4.05348 20.0963 4.12212 19.6966 4.2593C19.2968 4.39659 18.9419 4.59038 18.6317 4.84099C18.3196 5.09353 18.048 5.39228 17.8262 5.7269C17.5996 6.067 17.4265 6.43986 17.3072 6.84559H17.2714V4.26811H16.9135V16.6177H17.2714V16.6177ZM20.9941 13.3244C19.8726 13.3244 18.9717 12.9396 18.2916 12.1701C17.6115 11.4005 17.2714 10.2937 17.2714 8.84998C17.2714 8.25335 17.355 7.6866 17.522 7.1497C17.6891 6.61281 17.9306 6.14144 18.2468 5.73582C18.563 5.33008 18.9538 5.00792 19.4191 4.76934C19.8844 4.53065 20.4095 4.4113 20.9941 4.4113C21.5907 4.4113 22.1128 4.53065 22.5602 4.76934C23.0076 5.00792 23.3776 5.33309 23.6699 5.74473C23.9622 6.15637 24.1829 6.62774 24.3321 7.15862C24.4812 7.6896 24.5558 8.25335 24.5558 8.84998C24.5558 9.38698 24.4872 9.92097 24.35 10.4519C24.2128 10.9828 24.0009 11.4601 23.7146 11.8838C23.4283 12.3072 23.0614 12.6532 22.6139 12.9218C22.1664 13.1902 21.6265 13.3244 20.9941 13.3244V13.3244ZM26.8825 13.4676V8.25937C26.8825 7.75825 26.9541 7.26894 27.0974 6.79177C27.2405 6.3145 27.4612 5.89383 27.7595 5.53C28.0578 5.16605 28.4366 4.87966 28.8961 4.67083C29.3554 4.46201 29.9013 4.37553 30.5337 4.4113V4.05337C29.9848 4.04156 29.5046 4.10107 29.093 4.23234C28.6812 4.36361 28.3263 4.54257 28.028 4.76934C27.7297 4.996 27.4911 5.26144 27.3121 5.56577C27.1333 5.86961 27.0006 6.19832 26.9183 6.54116H26.8825V4.26811H26.5246V13.4677H26.8825V13.4676ZM30.9811 8.93946H38.6771C38.7011 8.30707 38.6385 7.69863 38.4893 7.11393C38.3402 6.52923 38.1015 6.01017 37.7734 5.55685C37.4452 5.10342 37.0217 4.73948 36.5026 4.46501C35.9835 4.19055 35.3661 4.05337 34.6502 4.05337C34.1371 4.05337 33.6359 4.1608 33.1467 4.37564C32.6575 4.59038 32.228 4.90351 31.8581 5.31515C31.4883 5.72679 31.1899 6.23092 30.9633 6.82765C30.7366 7.42416 30.6232 8.10425 30.6232 8.86791C30.6232 9.548 30.7007 10.1834 30.8559 10.774C31.011 11.3646 31.2496 11.8778 31.5717 12.3133C31.894 12.7487 32.3086 13.0858 32.8157 13.3244C33.3227 13.5631 33.9342 13.6764 34.6502 13.6645C35.7002 13.6645 36.5832 13.3691 37.299 12.7786C38.015 12.1879 38.4386 11.3557 38.5698 10.2818H38.2119C38.0568 11.2961 37.66 12.0567 37.0217 12.5638C36.3833 13.0709 35.5809 13.3244 34.6143 13.3244C33.9581 13.3244 33.4033 13.2111 32.9498 12.9844C32.4965 12.7578 32.1266 12.4474 31.8402 12.0537C31.5539 11.6599 31.3421 11.1976 31.2049 10.6666C31.0676 10.1357 30.993 9.55993 30.9811 8.93946ZM38.3192 8.58153H30.9812C31.0169 7.93721 31.1362 7.35853 31.339 6.84548C31.542 6.33233 31.8074 5.89383 32.1356 5.53C32.4636 5.16605 32.8455 4.88869 33.281 4.69769C33.7165 4.5068 34.1849 4.4113 34.686 4.4113C35.2826 4.4113 35.8075 4.52173 36.261 4.74249C36.7143 4.96324 37.0932 5.26456 37.3975 5.64633C37.7017 6.02811 37.9314 6.47262 38.0865 6.97965C38.2416 7.48679 38.3192 8.02079 38.3192 8.58153ZM46.1048 6.98868H46.4628C46.4628 5.96248 46.1644 5.21675 45.5679 4.7514C44.9712 4.28605 44.1598 4.05337 43.1338 4.05337C42.561 4.05337 42.0778 4.12502 41.684 4.26822C41.2903 4.4113 40.9681 4.59628 40.7175 4.82294C40.467 5.0496 40.288 5.30022 40.1806 5.57468C40.0732 5.84915 40.0195 6.11168 40.0195 6.36219C40.0195 6.86332 40.109 7.26303 40.288 7.56134C40.467 7.85965 40.7474 8.09233 41.1292 8.25937C41.3917 8.37861 41.6899 8.48603 42.0241 8.58164C42.3582 8.67703 42.746 8.77843 43.1875 8.88575C43.5812 8.98135 43.969 9.07674 44.3508 9.17213C44.7326 9.26763 45.0697 9.39589 45.362 9.55692C45.6544 9.71805 45.893 9.92387 46.078 10.1745C46.2628 10.425 46.3553 10.7532 46.3553 11.1588C46.3553 11.5526 46.2629 11.8867 46.078 12.161C45.8946 12.4341 45.6532 12.6633 45.371 12.8323C45.0846 13.0053 44.7654 13.1305 44.4135 13.2081C44.0614 13.2856 43.7184 13.3244 43.3844 13.3244C42.2985 13.3244 41.4662 13.0828 40.8876 12.5996C40.3089 12.1164 40.0196 11.3557 40.0196 10.3176H39.6616C39.6616 11.475 39.9748 12.3222 40.6012 12.8592C41.2277 13.3961 42.1554 13.6645 43.3844 13.6645C43.7781 13.6645 44.1748 13.6197 44.5746 13.5302C44.9742 13.4408 45.3322 13.2947 45.6484 13.0917C45.9618 12.8917 46.2251 12.6223 46.418 12.3043C46.6149 11.9821 46.7134 11.5884 46.7134 11.123C46.7134 10.6815 46.6268 10.3236 46.4538 10.0491C46.2808 9.77477 46.0541 9.548 45.7736 9.36904C45.4933 9.19007 45.1771 9.04989 44.8251 8.94848C44.4711 8.84648 44.1161 8.748 43.7601 8.65307C43.322 8.53814 42.8835 8.4248 42.4446 8.31308C42.0689 8.21758 41.7199 8.10425 41.3977 7.97298C41.0875 7.84171 40.8399 7.65383 40.6549 7.40923C40.4699 7.16463 40.3775 6.81562 40.3775 6.36219C40.3775 6.27873 40.4014 6.12952 40.4491 5.91478C40.4968 5.69994 40.6102 5.48219 40.7892 5.26144C40.9681 5.0408 41.2425 4.84389 41.6124 4.67083C41.9823 4.49789 42.4894 4.4113 43.1338 4.4113C43.5753 4.4113 43.9779 4.45911 44.3418 4.5545C44.7058 4.65 45.019 4.8021 45.2814 5.01093C45.544 5.21976 45.7468 5.4852 45.89 5.80736C46.0332 6.12962 46.1048 6.52333 46.1048 6.98868V6.98868ZM54.3915 6.98868H54.7494C54.7494 5.96248 54.4512 5.21675 53.8546 4.7514C53.2579 4.28605 52.4466 4.05337 51.4204 4.05337C50.8477 4.05337 50.3644 4.12502 49.9707 4.26822C49.5769 4.4113 49.2548 4.59628 49.0042 4.82294C48.7536 5.0496 48.5747 5.30022 48.4672 5.57468C48.3598 5.84915 48.3062 6.11168 48.3062 6.36219C48.3062 6.86332 48.3957 7.26303 48.5748 7.56134C48.7536 7.85965 49.0341 8.09233 49.4159 8.25937C49.6784 8.37861 49.9766 8.48603 50.3107 8.58164C50.6448 8.67703 51.0326 8.77843 51.4741 8.88575C51.8679 8.98135 52.2557 9.07674 52.6375 9.17213C53.0194 9.26763 53.3563 9.39589 53.6487 9.55692C53.941 9.71805 54.1797 9.92387 54.3646 10.1745C54.5496 10.425 54.6421 10.7532 54.6421 11.1588C54.6421 11.5526 54.5496 11.8867 54.3646 12.161C54.1812 12.4341 53.9399 12.6633 53.6578 12.8323C53.3713 13.0053 53.0521 13.1305 52.7001 13.2081C52.3482 13.2856 52.0051 13.3244 51.671 13.3244C50.5852 13.3244 49.753 13.0828 49.1743 12.5996C48.5955 12.1164 48.3062 11.3557 48.3062 10.3176H47.9483C47.9483 11.475 48.2614 12.3222 48.8879 12.8592C49.5143 13.3961 50.442 13.6645 51.671 13.6645C52.0648 13.6645 52.4615 13.6197 52.8612 13.5302C53.2608 13.4408 53.6189 13.2947 53.9351 13.0917C54.2486 12.8917 54.5119 12.6223 54.7047 12.3043C54.9016 11.9821 55 11.5884 55 11.123C55 10.6815 54.9135 10.3236 54.7405 10.0491C54.5675 9.77477 54.3409 9.548 54.0604 9.36904C53.78 9.19007 53.4638 9.04989 53.1118 8.94848C52.7578 8.84648 52.4028 8.748 52.0469 8.65307C51.6088 8.53814 51.1703 8.4248 50.7314 8.31308C50.3555 8.21758 50.0065 8.10425 49.6843 7.97298C49.3741 7.84171 49.1265 7.65383 48.9416 7.40923C48.7566 7.16463 48.6642 6.81562 48.6642 6.36219C48.6642 6.27873 48.688 6.12952 48.7358 5.91478C48.7835 5.69994 48.8969 5.48219 49.0758 5.26144C49.2548 5.0408 49.5292 4.84389 49.8991 4.67083C50.269 4.49789 50.7761 4.4113 51.4205 4.4113C51.862 4.4113 52.2646 4.45911 52.6286 4.5545C52.9925 4.65 53.3056 4.8021 53.5682 5.01093C53.8307 5.21976 54.0335 5.4852 54.1767 5.80736C54.3199 6.12962 54.3916 6.52333 54.3916 6.98868H54.3915Z"/>
</mask>
<path d="M0.35793 13.1097V6.98868H8.00035V6.63064H0.35793V1.04653H8.48354V0.688599H0V13.4676H8.55508V13.1097H0.358037H0.35793ZM15.4459 4.26811L12.278 8.43833L9.18156 4.26822H8.71621L12.0632 8.70689L8.39395 13.4675H8.82353L12.2778 8.97512L15.75 13.4675H16.1974L12.5105 8.70667L15.8752 4.268H15.4458L15.4459 4.26811ZM17.2714 16.6177V10.8905H17.3072C17.522 11.7257 17.9456 12.3968 18.578 12.904C19.2104 13.411 20.0157 13.6646 20.9941 13.6646C21.6265 13.6646 22.1873 13.5364 22.6765 13.2798C23.1657 13.0233 23.5744 12.6743 23.9025 12.2328C24.2306 11.7913 24.4812 11.2782 24.6543 10.6935C24.8272 10.109 24.9138 9.4944 24.9138 8.85019C24.9138 8.15807 24.8242 7.51966 24.6453 6.93507C24.4663 6.35038 24.2068 5.84324 23.8668 5.41376C23.5267 4.98418 23.115 4.65 22.6317 4.41152C22.1486 4.17283 21.6026 4.05348 20.9941 4.05348C20.5288 4.05348 20.0963 4.12212 19.6966 4.2593C19.2968 4.39659 18.9419 4.59038 18.6317 4.84099C18.3196 5.09353 18.048 5.39228 17.8262 5.7269C17.5996 6.067 17.4265 6.43986 17.3072 6.84559H17.2714V4.26811H16.9135V16.6177H17.2714V16.6177ZM20.9941 13.3244C19.8726 13.3244 18.9717 12.9396 18.2916 12.1701C17.6115 11.4005 17.2714 10.2937 17.2714 8.84998C17.2714 8.25335 17.355 7.6866 17.522 7.1497C17.6891 6.61281 17.9306 6.14144 18.2468 5.73582C18.563 5.33008 18.9538 5.00792 19.4191 4.76934C19.8844 4.53065 20.4095 4.4113 20.9941 4.4113C21.5907 4.4113 22.1128 4.53065 22.5602 4.76934C23.0076 5.00792 23.3776 5.33309 23.6699 5.74473C23.9622 6.15637 24.1829 6.62774 24.3321 7.15862C24.4812 7.6896 24.5558 8.25335 24.5558 8.84998C24.5558 9.38698 24.4872 9.92097 24.35 10.4519C24.2128 10.9828 24.0009 11.4601 23.7146 11.8838C23.4283 12.3072 23.0614 12.6532 22.6139 12.9218C22.1664 13.1902 21.6265 13.3244 20.9941 13.3244V13.3244ZM26.8825 13.4676V8.25937C26.8825 7.75825 26.9541 7.26894 27.0974 6.79177C27.2405 6.3145 27.4612 5.89383 27.7595 5.53C28.0578 5.16605 28.4366 4.87966 28.8961 4.67083C29.3554 4.46201 29.9013 4.37553 30.5337 4.4113V4.05337C29.9848 4.04156 29.5046 4.10107 29.093 4.23234C28.6812 4.36361 28.3263 4.54257 28.028 4.76934C27.7297 4.996 27.4911 5.26144 27.3121 5.56577C27.1333 5.86961 27.0006 6.19832 26.9183 6.54116H26.8825V4.26811H26.5246V13.4677H26.8825V13.4676ZM30.9811 8.93946H38.6771C38.7011 8.30707 38.6385 7.69863 38.4893 7.11393C38.3402 6.52923 38.1015 6.01017 37.7734 5.55685C37.4452 5.10342 37.0217 4.73948 36.5026 4.46501C35.9835 4.19055 35.3661 4.05337 34.6502 4.05337C34.1371 4.05337 33.6359 4.1608 33.1467 4.37564C32.6575 4.59038 32.228 4.90351 31.8581 5.31515C31.4883 5.72679 31.1899 6.23092 30.9633 6.82765C30.7366 7.42416 30.6232 8.10425 30.6232 8.86791C30.6232 9.548 30.7007 10.1834 30.8559 10.774C31.011 11.3646 31.2496 11.8778 31.5717 12.3133C31.894 12.7487 32.3086 13.0858 32.8157 13.3244C33.3227 13.5631 33.9342 13.6764 34.6502 13.6645C35.7002 13.6645 36.5832 13.3691 37.299 12.7786C38.015 12.1879 38.4386 11.3557 38.5698 10.2818H38.2119C38.0568 11.2961 37.66 12.0567 37.0217 12.5638C36.3833 13.0709 35.5809 13.3244 34.6143 13.3244C33.9581 13.3244 33.4033 13.2111 32.9498 12.9844C32.4965 12.7578 32.1266 12.4474 31.8402 12.0537C31.5539 11.6599 31.3421 11.1976 31.2049 10.6666C31.0676 10.1357 30.993 9.55993 30.9811 8.93946ZM38.3192 8.58153H30.9812C31.0169 7.93721 31.1362 7.35853 31.339 6.84548C31.542 6.33233 31.8074 5.89383 32.1356 5.53C32.4636 5.16605 32.8455 4.88869 33.281 4.69769C33.7165 4.5068 34.1849 4.4113 34.686 4.4113C35.2826 4.4113 35.8075 4.52173 36.261 4.74249C36.7143 4.96324 37.0932 5.26456 37.3975 5.64633C37.7017 6.02811 37.9314 6.47262 38.0865 6.97965C38.2416 7.48679 38.3192 8.02079 38.3192 8.58153ZM46.1048 6.98868H46.4628C46.4628 5.96248 46.1644 5.21675 45.5679 4.7514C44.9712 4.28605 44.1598 4.05337 43.1338 4.05337C42.561 4.05337 42.0778 4.12502 41.684 4.26822C41.2903 4.4113 40.9681 4.59628 40.7175 4.82294C40.467 5.0496 40.288 5.30022 40.1806 5.57468C40.0732 5.84915 40.0195 6.11168 40.0195 6.36219C40.0195 6.86332 40.109 7.26303 40.288 7.56134C40.467 7.85965 40.7474 8.09233 41.1292 8.25937C41.3917 8.37861 41.6899 8.48603 42.0241 8.58164C42.3582 8.67703 42.746 8.77843 43.1875 8.88575C43.5812 8.98135 43.969 9.07674 44.3508 9.17213C44.7326 9.26763 45.0697 9.39589 45.362 9.55692C45.6544 9.71805 45.893 9.92387 46.078 10.1745C46.2628 10.425 46.3553 10.7532 46.3553 11.1588C46.3553 11.5526 46.2629 11.8867 46.078 12.161C45.8946 12.4341 45.6532 12.6633 45.371 12.8323C45.0846 13.0053 44.7654 13.1305 44.4135 13.2081C44.0614 13.2856 43.7184 13.3244 43.3844 13.3244C42.2985 13.3244 41.4662 13.0828 40.8876 12.5996C40.3089 12.1164 40.0196 11.3557 40.0196 10.3176H39.6616C39.6616 11.475 39.9748 12.3222 40.6012 12.8592C41.2277 13.3961 42.1554 13.6645 43.3844 13.6645C43.7781 13.6645 44.1748 13.6197 44.5746 13.5302C44.9742 13.4408 45.3322 13.2947 45.6484 13.0917C45.9618 12.8917 46.2251 12.6223 46.418 12.3043C46.6149 11.9821 46.7134 11.5884 46.7134 11.123C46.7134 10.6815 46.6268 10.3236 46.4538 10.0491C46.2808 9.77477 46.0541 9.548 45.7736 9.36904C45.4933 9.19007 45.1771 9.04989 44.8251 8.94848C44.4711 8.84648 44.1161 8.748 43.7601 8.65307C43.322 8.53814 42.8835 8.4248 42.4446 8.31308C42.0689 8.21758 41.7199 8.10425 41.3977 7.97298C41.0875 7.84171 40.8399 7.65383 40.6549 7.40923C40.4699 7.16463 40.3775 6.81562 40.3775 6.36219C40.3775 6.27873 40.4014 6.12952 40.4491 5.91478C40.4968 5.69994 40.6102 5.48219 40.7892 5.26144C40.9681 5.0408 41.2425 4.84389 41.6124 4.67083C41.9823 4.49789 42.4894 4.4113 43.1338 4.4113C43.5753 4.4113 43.9779 4.45911 44.3418 4.5545C44.7058 4.65 45.019 4.8021 45.2814 5.01093C45.544 5.21976 45.7468 5.4852 45.89 5.80736C46.0332 6.12962 46.1048 6.52333 46.1048 6.98868V6.98868ZM54.3915 6.98868H54.7494C54.7494 5.96248 54.4512 5.21675 53.8546 4.7514C53.2579 4.28605 52.4466 4.05337 51.4204 4.05337C50.8477 4.05337 50.3644 4.12502 49.9707 4.26822C49.5769 4.4113 49.2548 4.59628 49.0042 4.82294C48.7536 5.0496 48.5747 5.30022 48.4672 5.57468C48.3598 5.84915 48.3062 6.11168 48.3062 6.36219C48.3062 6.86332 48.3957 7.26303 48.5748 7.56134C48.7536 7.85965 49.0341 8.09233 49.4159 8.25937C49.6784 8.37861 49.9766 8.48603 50.3107 8.58164C50.6448 8.67703 51.0326 8.77843 51.4741 8.88575C51.8679 8.98135 52.2557 9.07674 52.6375 9.17213C53.0194 9.26763 53.3563 9.39589 53.6487 9.55692C53.941 9.71805 54.1797 9.92387 54.3646 10.1745C54.5496 10.425 54.6421 10.7532 54.6421 11.1588C54.6421 11.5526 54.5496 11.8867 54.3646 12.161C54.1812 12.4341 53.9399 12.6633 53.6578 12.8323C53.3713 13.0053 53.0521 13.1305 52.7001 13.2081C52.3482 13.2856 52.0051 13.3244 51.671 13.3244C50.5852 13.3244 49.753 13.0828 49.1743 12.5996C48.5955 12.1164 48.3062 11.3557 48.3062 10.3176H47.9483C47.9483 11.475 48.2614 12.3222 48.8879 12.8592C49.5143 13.3961 50.442 13.6645 51.671 13.6645C52.0648 13.6645 52.4615 13.6197 52.8612 13.5302C53.2608 13.4408 53.6189 13.2947 53.9351 13.0917C54.2486 12.8917 54.5119 12.6223 54.7047 12.3043C54.9016 11.9821 55 11.5884 55 11.123C55 10.6815 54.9135 10.3236 54.7405 10.0491C54.5675 9.77477 54.3409 9.548 54.0604 9.36904C53.78 9.19007 53.4638 9.04989 53.1118 8.94848C52.7578 8.84648 52.4028 8.748 52.0469 8.65307C51.6088 8.53814 51.1703 8.4248 50.7314 8.31308C50.3555 8.21758 50.0065 8.10425 49.6843 7.97298C49.3741 7.84171 49.1265 7.65383 48.9416 7.40923C48.7566 7.16463 48.6642 6.81562 48.6642 6.36219C48.6642 6.27873 48.688 6.12952 48.7358 5.91478C48.7835 5.69994 48.8969 5.48219 49.0758 5.26144C49.2548 5.0408 49.5292 4.84389 49.8991 4.67083C50.269 4.49789 50.7761 4.4113 51.4205 4.4113C51.862 4.4113 52.2646 4.45911 52.6286 4.5545C52.9925 4.65 53.3056 4.8021 53.5682 5.01093C53.8307 5.21976 54.0335 5.4852 54.1767 5.80736C54.3199 6.12962 54.3916 6.52333 54.3916 6.98868H54.3915Z" fill="white" stroke="white" stroke-width="10" mask="url(#path-1-inside-1_3502_543)"/>
</g>
<defs>
<clipPath id="clip0_3502_543">
<rect width="55" height="16.016" fill="white" transform="translate(0 0.683472)"/>
</clipPath>
</defs>
</svg>
